<svg xmlns="http://www.w3.org/2000/svg" viewBox="0 0 1024 1024"><rect width="1024" height="1024" rx="220" fill="#101831"/><ellipse cx="512" cy="575" rx="345" ry="250" fill="#111a33" stroke="#2c84ff" stroke-width="24"/><ellipse cx="512" cy="575" rx="112" ry="82" fill="#b8c6d8"/><ellipse cx="512" cy="575" rx="36" ry="27" fill="#101831"/><ellipse cx="470" cy="544" rx="205" ry="165" fill="#ffcd48"/><ellipse cx="520" cy="525" rx="175" ry="128" fill="#ffe170"/><ellipse cx="432" cy="570" rx="83" ry="58" fill="#f3b84d"/><ellipse cx="520" cy="365" rx="150" ry="138" fill="#ffe170"/><ellipse cx="464" cy="348" rx="84" ry="72" fill="#ffcd48"/><path d="M610 360 760 405 610 455Z" fill="#f28422"/><path d="M640 407H752L640 438Z" fill="#ffb33a"/><circle cx="544" cy="337" r="22" fill="#fff"/><circle cx="550" cy="340" r="10" fill="#1c212d"/><path d="M754 549a257 188 0 0 1-183 207" fill="none" stroke="#5cdce8" stroke-width="18" stroke-linecap="round"/></svg>